<svg width="48" height="48" viewBox="0 0 48 48" fill="none" xmlns="http://www.w3.org/2000/svg">
<circle cx="24" cy="24" r="24" fill="url(#paint0_linear_5364_86)"/>
<g clip-path="url(#clip0_5364_86)">
<path d="M24 6.3999C21.8547 6.3999 20.1152 14.2797 20.1152 23.9999C20.1152 33.7201 21.8547 41.5999 24 41.5999C26.1452 41.5999 27.8847 33.7201 27.8847 23.9999C27.8847 14.2797 26.1452 6.3999 24 6.3999ZM24.2682 40.6066C24.0228 40.938 23.7775 40.6894 23.7775 40.6894C22.7896 39.5301 22.2956 37.3765 22.2956 37.3765C20.5676 31.7446 20.9789 19.6524 20.9789 19.6524C21.791 10.0524 23.2683 7.78458 23.771 7.2811C23.8224 7.22972 23.8899 7.19832 23.9619 7.19243C24.0338 7.18654 24.1055 7.20653 24.1643 7.2489C24.8938 7.77234 25.5056 9.96141 25.5056 9.96141C27.3122 16.7529 27.1486 23.1303 27.1486 23.1303C27.3122 28.6795 26.2433 34.8912 26.2433 34.8912C25.4205 39.6119 24.2682 40.6066 24.2682 40.6066Z" fill="#464869"/>
<path d="M39.0746 15.2412C38.0065 13.3561 30.3924 15.7497 22.0628 20.5867C13.7333 25.4237 7.85769 30.8734 8.92497 32.7577C9.99226 34.6419 17.6072 32.2492 25.9367 27.4122C34.2663 22.5752 40.1419 17.1255 39.0746 15.2412ZM9.91038 32.4991C9.50147 32.4469 9.59384 32.1065 9.59384 32.1065C10.0954 30.6621 11.6925 29.1564 11.6925 29.1564C15.6581 24.8356 26.2207 19.1795 26.2207 19.1795C34.8464 15.1153 37.5257 15.2868 38.2054 15.4763C38.2752 15.496 38.3358 15.5401 38.3766 15.6007C38.4173 15.6614 38.4355 15.7347 38.428 15.8077C38.3463 16.7093 36.7718 18.3355 36.7718 18.3355C31.8563 23.304 26.3123 26.3345 26.3123 26.3345C21.6407 29.2407 15.7883 31.3917 15.7883 31.3917C11.3352 33.0167 9.91054 32.4991 9.91054 32.4991H9.91038Z" fill="#464869"/>
<path d="M39.0368 32.8205C40.1131 30.9404 34.2523 25.4658 25.952 20.5924C17.6517 15.719 10.0386 13.2958 8.96318 15.1792C7.88778 17.0625 13.7476 22.5339 22.0527 27.4073C30.3578 32.2807 37.9614 34.704 39.0368 32.8205ZM9.6764 15.9056C9.51741 15.5239 9.85304 15.4319 9.85304 15.4319C11.3389 15.1478 13.4261 15.7953 13.4261 15.7953C19.1044 17.1048 29.2296 23.5278 29.2296 23.5278C37.0253 29.0521 38.2208 31.4855 38.4 32.1762C38.4182 32.247 38.4112 32.3221 38.38 32.3882C38.3489 32.4543 38.2957 32.5071 38.2299 32.5373C37.417 32.9142 35.2398 32.3526 35.2398 32.3526C28.5294 30.5305 23.1627 27.192 23.1627 27.192C18.3408 24.5582 13.5727 20.5056 13.5727 20.5056C9.9497 17.4164 9.67751 15.9098 9.67751 15.9098L9.6764 15.9056Z" fill="#464869"/>
<path d="M23.9591 26.0288C25.0883 26.0288 26.0037 25.1018 26.0037 23.9583C26.0037 22.8147 25.0883 21.8877 23.9591 21.8877C22.8299 21.8877 21.9146 22.8147 21.9146 23.9583C21.9146 25.1018 22.8299 26.0288 23.9591 26.0288Z" fill="#464869"/>
<path d="M32.3421 17.2496C32.9971 17.2496 33.528 16.6934 33.528 16.0072C33.528 15.3211 32.9971 14.7649 32.3421 14.7649C31.6872 14.7649 31.1562 15.3211 31.1562 16.0072C31.1562 16.6934 31.6872 17.2496 32.3421 17.2496Z" fill="#464869"/>
<path d="M12.8773 21.4737C13.5323 21.4737 14.0632 20.9175 14.0632 20.2314C14.0632 19.5452 13.5323 18.989 12.8773 18.989C12.2223 18.989 11.6914 19.5452 11.6914 20.2314C11.6914 20.9175 12.2223 21.4737 12.8773 21.4737Z" fill="#464869"/>
<path d="M21.5467 36.7132C22.2017 36.7132 22.7326 36.157 22.7326 35.4709C22.7326 34.7847 22.2017 34.2285 21.5467 34.2285C20.8918 34.2285 20.3608 34.7847 20.3608 35.4709C20.3608 36.157 20.8918 36.7132 21.5467 36.7132Z" fill="#464869"/>
</g>
<defs>
<linearGradient id="paint0_linear_5364_86" x1="-6" y1="23.8509" x2="58" y2="23.8509" gradientUnits="userSpaceOnUse">
<stop stop-color="#FDA9FF"/>
<stop offset="0.363014" stop-color="#C9B8FF"/>
<stop offset="0.885126" stop-color="#4DFFE5"/>
</linearGradient>
<clipPath id="clip0_5364_86">
<rect width="30.4" height="35.2" fill="white" transform="translate(8.7998 6.3999)"/>
</clipPath>
</defs>
</svg>
